<svg width="186" height="66" viewBox="0 0 186 66" fill="none" xmlns="http://www.w3.org/2000/svg">
<path fill-rule="evenodd" clip-rule="evenodd" d="M38.0174 53.8851C36.5795 54.9872 34.7782 55.5298 32.9663 55.2939C31.7043 55.1295 30.1764 54.5994 29.2073 53.4155C27.6015 51.4539 27.6117 48.0583 29.7946 45.0804C29.0282 47.6668 30.0989 50.2093 32.0265 51.1849C33.3692 51.8645 34.9536 51.7086 36.2555 51.0676C40.9542 48.3283 45.653 45.589 50.3517 42.8498C50.3517 35.1016 50.3517 27.3534 50.3517 19.6053L42.0114 24.4186V36.5104C40.688 37.7688 39.2342 38.8689 37.6651 39.7975C36.5021 40.4857 35.2867 41.0734 34.0235 41.5585C34.7829 40.7564 35.4155 39.8481 35.903 38.8583C36.3429 37.9654 36.6582 37.0196 36.8428 36.0408C37.1777 35.992 37.4981 35.872 37.7825 35.6886C38.0649 35.5066 38.3051 35.2665 38.4873 34.9842C38.4873 30.8362 38.4873 26.6882 38.4873 22.5402L48.5897 16.5529L28.6199 5.04811L28.7374 13.7354L27.0928 15.1442L25.2133 13.8528V5.04811L11.5869 13.031L12.0568 8.68736L26.7404 0C35.6681 5.20461 44.5958 10.4092 53.5234 15.6138C53.6409 25.3185 53.7583 35.0234 53.8758 44.7282C48.5897 47.7804 43.3036 50.8328 38.0174 53.8851ZM33.0837 28.997C34.028 30.359 35.3586 32.9599 34.9657 35.7993C34.8531 36.6131 34.6089 37.4361 34.2673 38.183C33.9125 38.9585 33.3522 39.8253 32.4964 40.7367C30.5126 42.8494 26.5661 45.3442 23.5688 46.9587C24.9307 45.7866 26.267 44.5781 27.4455 43.437C28.163 42.7422 28.7952 42.0657 29.4425 41.0934C29.9476 40.3344 30.3911 39.4578 30.8368 38.2792C31.7592 35.3951 31.0828 32.695 30.0976 29.9949L30.0883 29.8775C30.0883 29.8775 30.0883 29.8775 30.0737 29.7481C29.5861 28.3896 29.4468 26.936 29.6761 25.5155C29.949 23.8247 30.7309 22.2616 31.9091 21.014L31.0428 21.6782C30.4606 22.199 29.9313 22.7646 29.4588 23.4224C28.7497 24.4096 28.0494 25.7778 27.6019 27.6469C27.2396 29.1601 27.1485 30.7256 27.3278 32.2841C26.9188 30.7055 26.1651 29.2621 25.0959 28.0578C24.5413 27.4333 23.9119 26.8837 23.2163 26.4143C23.5347 25.0698 24.0138 23.7851 24.6546 22.5732C24.8304 22.2408 25.0144 21.9206 25.2133 21.601C25.4013 21.2707 25.5894 20.9403 25.7774 20.61C23.272 20.751 22.0255 19.578 21.4794 18.0838C23.8613 18.514 25.9266 18.3805 27.6714 17.6333C28.3339 17.3496 29.3127 16.8366 30.6169 16.9052C31.7512 16.9648 32.8106 17.4339 33.7886 18.1965C34.4828 18.0732 35.1935 18.165 35.8062 18.5047C36.4037 18.8361 36.8886 19.3003 37.0035 19.885C37.033 20.0354 37.0389 20.1866 37.024 20.3367C35.8638 19.6633 34.3046 20.123 33.3086 20.6255C32.0544 21.5519 31.1565 22.8413 31.0868 24.3011C31.0538 24.9909 31.21 25.6143 31.5567 26.4143C32.0042 27.4471 32.7028 28.4476 33.0837 28.997ZM22.7644 50.5529C23.8608 48.7375 25.5119 47.6484 27.0966 46.4929L27.4765 46.4546C25.3611 48.7593 26.1249 53.7666 27.6876 55.6386C28.4211 56.5883 29.3053 57.3873 30.4441 58.0237C31.7448 58.618 34.0157 58.9258 35.2307 58.1626C34.5017 59.3722 30.9773 61.0248 28.1665 59.8259C26.1982 59.0615 24.9464 57.3875 24.9065 53.9795L24.6097 53.9745C24.4532 56.5921 25.6638 60.2494 26.7878 61.5859C27.2937 62.4891 28.0731 63.119 28.8677 63.8527C29.808 64.3673 30.4641 65.078 31.989 65.2677C32.0853 65.3313 32.0853 65.3313 32.0853 65.3313L31.9678 65.566C31.9678 65.566 31.9678 65.566 31.8924 65.5651C28.5763 65.233 25.4562 63.9054 24.2445 62.576C22.4795 61.1546 21.1364 59.1978 20.9098 55.4995C21.1492 53.2746 21.9244 51.4326 22.7644 50.5529Z" fill="#B0795A"/>
<path fill-rule="evenodd" clip-rule="evenodd" d="M29.5643 27.6139C29.9268 30.494 31.8754 33.7451 31.2176 36.9287C30.2747 40.5421 29.1504 41.674 27.4465 43.4809C26.4552 44.4861 25.3088 45.3361 24.295 46.3187C22.6732 47.8906 21.1231 49.6558 20.6945 50.5C19.5174 52.8194 19.2279 55.4866 19.6933 58.2728C18.6958 56.5661 18.1039 54.6754 17.9783 52.7252C17.8421 50.6112 18.4509 48.3535 18.9086 47.0614C19.4566 45.5145 19.7861 45.428 20.2663 43.85C20.8691 41.9708 19.9553 40.4391 19.0627 40.0639C17.7465 38.9642 14.935 39.0284 12.9749 39.0791C9.73561 38.7242 6.94899 37.4935 5.58343 36.411C4.41667 35.4861 3.41321 34.5873 2.6617 33.5847C1.59463 32.1612 0.840756 30.5386 0.428338 28.8062C1.87922 30.8648 3.81234 32.5112 6.07525 33.5806C7.65881 34.3291 9.36326 34.7763 11.118 34.9108C12.6059 35.0282 14.0939 35.1456 15.5818 35.263C15.8576 35.2557 16.1559 35.2304 16.1692 35.1456C16.1848 35.0461 15.8022 34.9028 15.4644 34.7935C12.4302 34.4805 9.54923 33.5387 6.99971 31.9836C4.23393 30.2964 2.30452 28.0138 1.71254 26.9359C0.762374 25.2058 0.0117371 22.667 0.207491 20.5465C0.252146 20.5297 0.252146 20.4124 0.252146 20.4124C0.252146 20.4124 0.252146 20.4124 0.226108 20.4008C0.390698 19.164 0.699911 17.9566 1.15051 16.7949C1.71942 15.3281 2.50419 13.9592 3.48249 12.7229C2.54588 15.2048 2.37522 17.861 3.18042 20.3276C3.50819 21.3318 4.02422 22.3578 4.75664 23.3784C5.57143 24.5137 6.73941 25.6345 8.45943 26.7723C10.8544 28.3569 13.8338 29.698 16.6391 30.6846C16.8221 30.7224 16.9618 30.6569 16.9914 30.5671C17.0041 30.529 16.9973 30.4848 16.9743 30.4383C13.982 29.4421 11.9055 27.939 9.84313 26.3082C7.81329 24.2875 6.47201 23.0455 5.28522 19.2637C4.74645 16.7339 4.80393 14.3468 5.81845 11.9598C6.22088 11.013 6.65117 10.144 7.16289 9.38082C8.16412 7.88777 9.57379 6.50462 11.4021 5.37596C12.0953 4.94796 12.8234 4.57925 13.5849 4.27031C13.007 4.78108 12.4839 5.34804 12.0204 5.9668C11.4703 6.70091 11.0672 7.59549 10.6282 8.40515C8.89135 11.6084 9.59139 16.2441 11.2371 18.5746C13.4068 21.9729 16.7877 23.8836 20.5539 25.9504C21.7273 26.5334 22.7833 27.2337 23.7318 28.0939C24.3148 28.6226 24.8033 29.1373 25.1706 29.6273C26.6037 31.5391 27.1535 33.9713 26.9803 36.551C27.3051 35.8484 27.5093 35.105 27.5637 34.3238C27.637 33.2709 27.3657 32.4416 27.2113 31.6238C27.073 30.8911 27.1605 28.9959 27.7177 27.104C28.1792 25.5373 28.8071 24.3572 29.4973 23.4111C29.9483 22.7929 30.4598 22.2462 31.0573 21.7093L32.0275 21.058C31.0531 22.1103 29.306 25.3882 29.5643 27.6139ZM3.36505 43.0112C7.61308 45.4374 11.8611 47.8636 16.1091 50.2897C16.1292 51.6594 16.1492 53.029 16.1692 54.3986C10.8297 51.274 5.49008 48.1494 0.150492 45.0247C-0.0178081 41.0601 0.0502538 36.988 0 32.9777C1.14909 34.4346 2.29818 35.8915 3.44728 37.3484C3.41989 39.236 3.39243 41.1236 3.36505 43.0112Z" fill="#4B1E66"/>
<path d="M68.6196 40.783V24.6202H75.6158C77.0627 24.6202 78.3096 24.8588 79.3563 25.336C80.403 25.7978 81.2112 26.4674 81.7807 27.3448C82.3503 28.2222 82.635 29.2689 82.635 30.485C82.635 31.6857 82.3503 32.7247 81.7807 33.6021C81.2112 34.4795 80.403 35.1568 79.3563 35.634C78.3096 36.0958 77.0627 36.3267 75.6158 36.3267H70.6976L72.3601 34.6411V40.783H68.6196ZM72.3601 35.0568L70.6976 33.2789H75.4079C76.5624 33.2789 77.4245 33.0326 77.994 32.54C78.5635 32.0474 78.8483 31.3624 78.8483 30.485C78.8483 29.5922 78.5635 28.8995 77.994 28.4069C77.4245 27.9143 76.5624 27.6681 75.4079 27.6681H70.6976L72.3601 25.8901V35.0568ZM96.3886 40.783V24.6202H100.129V40.783H96.3886ZM85.3055 40.783V24.6202H89.046V40.783H85.3055ZM88.769 34.1563V30.993H96.6656V34.1563H88.769ZM103.953 40.783V24.6202H116.168V27.6219H107.671V37.7813H116.468V40.783H103.953ZM107.394 34.0408V31.1315H115.175V34.0408H107.394ZM117.462 40.783L124.412 31.2008V33.9254L117.762 24.6202H122.01L126.605 31.1084L124.827 31.1315L129.353 24.6202H133.417L126.813 33.7637V31.0853L133.809 40.783H129.491L124.735 33.9254H126.443L121.756 40.783H117.462ZM132.811 40.783L140.015 24.6202H143.709L150.936 40.783H147.011L141.1 26.5136H142.578L136.644 40.783H132.811ZM136.413 37.3196L137.405 34.4795H145.718L146.734 37.3196H136.413ZM152.613 40.783V24.6202H159.517C161.764 24.6202 163.511 25.1436 164.758 26.1903C166.005 27.2217 166.628 28.6532 166.628 30.485C166.628 31.6857 166.344 32.7247 165.774 33.6021C165.205 34.4641 164.396 35.126 163.35 35.5878C162.303 36.0496 161.056 36.2805 159.609 36.2805H154.691L156.353 34.6411V40.783H152.613ZM162.888 40.783L158.847 34.9182H162.842L166.929 40.783H162.888ZM156.353 35.0568L154.691 33.3019H159.401C160.556 33.3019 161.418 33.0557 161.987 32.5631C162.557 32.0551 162.842 31.3624 162.842 30.485C162.842 29.5922 162.557 28.8995 161.987 28.4069C161.418 27.9143 160.556 27.6681 159.401 27.6681H154.691L156.353 25.8901V35.0568ZM167.468 40.783L174.672 24.6202H178.366L185.593 40.783H181.668L175.757 26.5136H177.235L171.301 40.783H167.468ZM171.07 37.3196L172.063 34.4795H180.375L181.391 37.3196H171.07Z" fill="#4B1E66"/>
</svg>
